<?xml version="1.0" encoding="utf-8"?>
<!-- Generator: Adobe Illustrator 21.1.0, SVG Export Plug-In . SVG Version: 6.00 Build 0)  -->
<svg version="1.1" id="Layer_1" xmlns="http://www.w3.org/2000/svg" xmlns:xlink="http://www.w3.org/1999/xlink" x="0px" y="0px"
	 viewBox="0 0 1366 768" style="enable-background:new 0 0 1366 768;" xml:space="preserve">
<style type="text/css">
	.st0{fill:#FFFFFF;stroke:#000000;stroke-miterlimit:10;}
</style>
<path class="st0" d="M808.5,328.5c-19.2,0-38.3,0-57.5,0c2,20.4-14.4,36-29.5,35c-14-0.9-27.6-16.2-25.4-35
	c-129.2,0-258.4,0-387.6,0c-1.5,0-9.3-0.1-15.6-6.4c-4-4-6.4-9.5-6.4-15.6v-59c0-6.1,2.5-11.6,6.4-15.6c5.4-5.4,12.8-6.2,15.6-6.4
	c15-1.5,172.2-1.4,386.6,0c-2.8,19.2,11.8,34.9,26.4,35c14.7,0.1,29.8-15.6,27-35c2.4-0.2,40-2.5,60,0c4.7,0.6,10.9,1.8,15.6,6.4
	c4,4,6.4,9.5,6.4,15.6v59C830.5,318.7,820.7,328.5,808.5,328.5z"/>
</svg>
